<?xml version="1.0" standalone="no"?>
<!DOCTYPE svg PUBLIC "-//W3C//DTD SVG 20010904//EN"
 "http://www.w3.org/TR/2001/REC-SVG-20010904/DTD/svg10.dtd">
<svg version="1.0" xmlns="http://www.w3.org/2000/svg"
 width="2000.000000pt" height="2000.000000pt" viewBox="0 0 2000.000000 2000.000000"
 preserveAspectRatio="xMidYMid meet">
<metadata>
Created by potrace 1.14, written by Peter Selinger 2001-2017
</metadata>
<g transform="translate(0.000000,2000.000000) scale(0.100000,-0.100000)"
fill="#000000" stroke="none">
<path d="M0 10000 l0 -10000 10000 0 10000 0 0 10000 0 10000 -10000 0 -10000
0 0 -10000z m9249 5743 c14 -31 570 -1325 686 -1596 l72 -169 23 54 c12 29 33
76 45 103 13 28 68 154 123 280 55 127 141 325 192 440 50 116 149 343 220
505 70 162 138 317 150 344 l22 49 20 -44 c19 -44 124 -279 323 -724 56 -126
205 -459 330 -740 125 -280 245 -550 267 -599 21 -49 47 -107 58 -130 10 -23
102 -230 205 -461 103 -231 195 -438 205 -460 22 -49 361 -809 472 -1060 44
-99 88 -198 98 -220 41 -92 745 -1671 851 -1910 55 -122 52 -115 40 -115 -5 0
-11 9 -14 20 -5 20 -14 20 -816 20 -790 0 -811 -1 -802 -19 6 -10 8 -21 5 -24
-6 -6 102 -258 791 -1842 82 -187 178 -410 215 -495 l67 -155 321 -3 320 -2
-2 32 c-2 18 -65 173 -140 343 -76 171 -172 387 -214 482 l-75 172 -120 3
-121 3 -118 290 c-197 481 -209 509 -229 531 -10 11 -19 23 -19 27 0 4 271 6
602 5 l603 -3 61 -140 c53 -122 415 -944 709 -1610 98 -222 161 -364 259 -588
29 -67 78 -178 109 -247 80 -182 87 -200 77 -200 -5 0 -12 9 -15 20 -6 20 -15
20 -1304 20 l-1298 0 -167 388 c-92 213 -276 640 -408 950 l-242 562 -2500 -2
-2499 -3 -62 -145 c-35 -80 -129 -296 -210 -480 -86 -194 -149 -351 -150 -373
l-3 -37 320 2 320 3 74 170 c134 309 188 430 194 438 3 4 229 6 501 5 l494 -3
-23 -23 c-13 -13 -68 -125 -122 -250 -112 -259 -422 -971 -482 -1109 l-40 -93
-1299 0 c-1289 0 -1298 0 -1304 -20 -3 -11 -10 -20 -15 -20 -5 0 -1 19 9 43
10 23 73 166 139 317 66 151 222 509 347 795 125 286 267 612 317 725 49 113
125 286 168 385 43 99 114 261 157 360 l79 180 813 3 812 2 30 67 c16 37 36
81 44 97 110 239 185 412 182 420 -3 6 0 19 5 29 8 16 -32 17 -786 17 l-795 0
-11 -21 c-7 -11 -14 -19 -16 -16 -3 2 88 215 202 473 114 258 251 568 304 689
53 121 182 411 285 645 103 234 214 484 245 555 31 72 168 382 305 690 510
1155 1406 3186 1463 3317 26 59 50 108 53 108 3 0 11 -12 18 -27z"/>
<path d="M9173 13468 c-23 -51 -76 -172 -118 -268 -42 -96 -98 -224 -125 -285
-26 -60 -130 -297 -230 -525 -100 -228 -206 -470 -236 -538 -30 -67 -79 -179
-110 -250 -30 -70 -77 -176 -104 -237 -26 -60 -130 -297 -230 -525 -100 -228
-198 -451 -218 -495 -20 -44 -37 -97 -38 -118 l-2 -37 305 2 304 3 145 335
c79 184 151 349 158 365 8 17 44 100 81 185 157 362 552 1274 649 1499 58 134
106 256 106 271 0 27 -279 709 -291 710 -3 0 -24 -42 -46 -92z"/>
<path d="M10650 13219 c-80 -187 -145 -352 -146 -367 0 -24 156 -393 773
-1827 102 -236 187 -439 190 -450 4 -18 3 -18 -14 2 l-18 23 -469 2 -470 3
-237 550 c-131 303 -241 556 -246 563 -5 9 -232 -504 -653 -1480 -355 -821
-643 -1494 -639 -1496 4 -2 5 -11 2 -21 -4 -18 15 -19 429 -25 238 -4 818 -8
1289 -9 l857 -2 -3 32 c-1 17 -60 162 -130 322 l-129 291 -812 0 -813 0 -15
-22 c-9 -12 -16 -18 -16 -12 0 6 70 173 156 370 86 197 172 396 192 442 l35
82 1253 0 1253 0 -4 38 c-2 21 -312 729 -735 1682 -403 905 -733 1646 -734
1646 0 1 -66 -151 -146 -337z"/>
</g>
</svg>
